<?xml version="1.0" encoding="UTF-8"?>
<svg version="1.1" xmlns="http://www.w3.org/2000/svg" width="314" height="85">
<path d="M0 0 C3.31236259 1.01918849 5.11786853 -0.26374468 8.1953125 -1.55859375 C13.00525697 -3.04179962 17.92589677 -2.36467343 22.48828125 -0.33984375 C27.78444755 3.00570027 30.25804596 7.81848655 32.0234375 13.703125 C33.480369 20.90531466 32.71102111 28.16383204 29.4375 34.75 C25.83347389 39.11276845 22.02278372 42.4524364 16.28125 43.11328125 C15.1778125 43.09652344 14.074375 43.07976563 12.9375 43.0625 C11.8340625 43.05863281 10.730625 43.05476563 9.59375 43.05078125 C6.4375 42.75 6.4375 42.75 3.78125 41.60546875 C1.48943627 40.4612536 1.48943627 40.4612536 -0.4765625 41.6015625 C-1.50910156 42.17003906 -1.50910156 42.17003906 -2.5625 42.75 C-8.35107199 43.39317467 -13.73160168 43.60005993 -19.0625 41.125 C-25.58227557 34.93121321 -28.53849914 29.93248151 -28.875 20.875 C-28.71017192 13.65553012 -26.85258432 6.88893905 -21.5625 1.75 C-14.60300366 -2.3097062 -7.48438009 -3.65091712 0 0 Z M-21.5625 8.75 C-24.86935299 15.26922446 -25.64053218 21.85939157 -23.4375 28.875 C-21.48480299 33.68666968 -18.20551641 36.42849179 -13.5625 38.75 C-11.45395964 38.9852732 -11.45395964 38.9852732 -9.125 39 C-7.95130859 39.03867188 -7.95130859 39.03867188 -6.75390625 39.078125 C-4.08318491 38.67823089 -3.24272561 37.80300878 -1.5625 35.75 C-2.036875 34.863125 -2.51125 33.97625 -3 33.0625 C-6.27781944 26.11352279 -6.54162116 19.18736347 -4.125 11.9375 C-3.61248002 10.53859281 -3.09253284 9.14236606 -2.5625 7.75 C-2.2325 6.76 -1.9025 5.77 -1.5625 4.75 C-8.686485 0.00067666 -16.61404959 2.04210056 -21.5625 8.75 Z M5.4375 5.75 C5.911875 6.636875 6.38625 7.52375 6.875 8.4375 C10.15281944 15.38647721 10.41662116 22.31263653 8 29.5625 C7.48748002 30.96140719 6.96753284 32.35763394 6.4375 33.75 C6.1075 34.74 5.7775 35.73 5.4375 36.75 C9.48820377 39.45046918 12.68132859 39.40153033 17.4375 38.75 C22.77861289 36.12983141 25.97399958 32.40875105 28.1875 26.875 C29.06341793 19.42969759 28.71017918 13.02266449 24.03125 6.9140625 C20.64989121 3.5167539 17.99780063 2.34901374 13.1875 2.1875 C9.44009631 2.27478425 7.83350087 2.83279115 5.4375 5.75 Z M1.4375 7.75 C-1.86385205 13.34794478 -3.41040763 18.83376477 -2.01953125 25.2578125 C-0.53997833 29.93698963 -0.53997833 29.93698963 2.4375 33.75 C5.73885205 28.15205522 7.28540763 22.66623523 5.89453125 16.2421875 C4.41497833 11.56301037 4.41497833 11.56301037 1.4375 7.75 Z " fill="#00A087" transform="translate(208.5625,16.25)"/>
<path d="M0 0 C5.76919395 4.83002284 8.16924945 9.20883556 8.9453125 16.7578125 C9.26388684 24.21245201 8.21448529 32.18317003 3.15625 38.015625 C-2.1718691 42.56019717 -6.29762854 42.57694633 -13.09375 42.546875 C-17.83299036 42.1097606 -19.98383951 40.57866049 -23.3125 37.25 C-23.6425 43.19 -23.9725 49.13 -24.3125 55.25 C-25.6325 55.25 -26.9525 55.25 -28.3125 55.25 C-28.3125 36.44 -28.3125 17.63 -28.3125 -1.75 C-26.9925 -1.75 -25.6725 -1.75 -24.3125 -1.75 C-23.9825 -0.1 -23.6525 1.55 -23.3125 3.25 C-22.796875 2.63125 -22.28125 2.0125 -21.75 1.375 C-15.43770423 -4.12802708 -7.0685888 -3.7343488 0 0 Z M-20.3125 6.25 C-25.20458103 12.47211556 -25.13547284 19.64493769 -24.3125 27.25 C-22.80589039 31.54383739 -20.78711443 34.31829407 -17.3125 37.25 C-13.20291495 38.61986168 -9.60103457 38.98375259 -5.3125 38.25 C-0.99909744 36.01066648 1.73540003 32.82215156 3.625 28.375 C5.59546548 21.93733017 5.2404858 16.29296308 2.68359375 10.078125 C1.15893667 7.27993084 -0.92610171 5.32239851 -3.3125 3.25 C-3.6425 2.92 -3.9725 2.59 -4.3125 2.25 C-10.65812804 1.52102955 -15.49672121 1.66354401 -20.3125 6.25 Z " fill="#00A088" transform="translate(28.3125,16.75)"/>
<path d="M0 0 C2.5242483 2.01939864 2.94833532 2.84500596 4 6 C4.08397157 8.35680213 4.10728187 10.71594081 4.09765625 13.07421875 C4.0962413 13.7580513 4.09482635 14.44188385 4.09336853 15.1464386 C4.08777876 17.32683722 4.07522822 19.50713251 4.0625 21.6875 C4.05748367 23.16731622 4.052921 24.64713406 4.04882812 26.12695312 C4.03781271 29.75133557 4.02055512 33.3756577 4 37 C5.65 37 7.3 37 9 37 C9 38.65 9 40.3 9 42 C2.47692308 41.38461538 2.47692308 41.38461538 0.0625 39.4375 C-0.288125 38.963125 -0.63875 38.48875 -1 38 C-1.86625 38.66 -2.7325 39.32 -3.625 40 C-9.28766255 43.24242436 -15.70174299 42.71656816 -22 42 C-25.16711495 41.13831647 -25.72280868 40.59346789 -28 38 C-29.88028185 33.57279092 -30.13738261 29.93114877 -29.4375 25.1875 C-27.68615232 21.30407689 -26.76690315 20.0341277 -23 18 C-19.03196524 17.07979105 -15.03197203 16.55819637 -11 16 C-9.08035907 15.64053538 -7.16328069 15.26690956 -5.25 14.875 C-4.43015625 14.70742188 -3.6103125 14.53984375 -2.765625 14.3671875 C-2.18296875 14.24601562 -1.6003125 14.12484375 -1 14 C-0.71972752 10.35645778 -0.55687092 7.822954 -2.3125 4.5625 C-6.68276797 2.02164653 -11.08008615 2.28464161 -16 3 C-19.78959324 5.01080458 -20.71078061 6.28383771 -22.3125 10.25 C-22.539375 11.1575 -22.76625 12.065 -23 13 C-24.32 13 -25.64 13 -27 13 C-26.62247219 7.43146487 -26.3441446 3.89859131 -22 0 C-14.41539897 -4.08908925 -7.68467577 -3.99012011 0 0 Z M-9.1875 19.8125 C-9.94353516 19.88275391 -10.69957031 19.95300781 -11.47851562 20.02539062 C-16.21422041 20.53880181 -19.86666527 21.44800329 -24 24 C-25.61281328 27.22562656 -25.57906485 30.51182363 -25 34 C-22.82818579 36.89575227 -21.2208235 37.80499325 -17.65234375 38.375 C-11.94006293 38.65070586 -8.42288113 37.88350539 -4 34 C-0.89267715 30.4640809 0.13919326 27.49078886 0.0625 22.8125 C0.041875 21.554375 0.02125 20.29625 0 19 C-3.05771511 19 -6.14623812 19.49143578 -9.1875 19.8125 Z " fill="#00A088" transform="translate(68,17)"/>
<path d="M0 0 C2.14917175 1.74620205 3.81748016 3.39277281 5.0625 5.8828125 C5.14889869 8.29119928 5.17817764 10.67015131 5.16015625 13.078125 C5.1587413 13.78556854 5.15732635 14.49301208 5.15586853 15.22189331 C5.150266 17.48390919 5.13771318 19.74582648 5.125 22.0078125 C5.11998532 23.54036315 5.11542236 25.07291536 5.11132812 26.60546875 C5.10029577 30.36462138 5.08302952 34.12370022 5.0625 37.8828125 C6.7125 37.8828125 8.3625 37.8828125 10.0625 37.8828125 C10.0625 39.5328125 10.0625 41.1828125 10.0625 42.8828125 C3.53942308 42.26742788 3.53942308 42.26742788 1.125 40.3203125 C0.774375 39.8459375 0.42375 39.3715625 0.0625 38.8828125 C-0.80375 39.5428125 -1.67 40.2028125 -2.5625 40.8828125 C-8.20305132 44.10104116 -14.6699302 43.77496657 -20.9375 42.8828125 C-24.27464909 41.2793242 -26.26080045 39.23621159 -27.9375 35.8828125 C-28.43742739 30.79338771 -28.75442667 26.36538313 -26.25 21.8203125 C-21.44829736 17.79726434 -16.26464438 17.40698265 -10.25 16.8203125 C-4.93225967 16.47562348 -4.93225967 16.47562348 0.0625 14.8828125 C0.34277248 11.23927028 0.50562908 8.7057665 -1.25 5.4453125 C-5.62181219 2.90356123 -10.02134047 3.03670789 -14.9375 3.8828125 C-18.79566027 6.63864126 -20.52520591 9.38914948 -21.9375 13.8828125 C-23.2575 13.8828125 -24.5775 13.8828125 -25.9375 13.8828125 C-25.71356803 8.39647921 -24.46409133 5.33917065 -20.6640625 1.33203125 C-15.29268012 -3.17652726 -6.05647579 -3.49224209 0 0 Z M-8.1875 20.7578125 C-9.33412109 20.87576172 -9.33412109 20.87576172 -10.50390625 20.99609375 C-14.58103448 21.45380245 -18.26956575 21.91095311 -21.9375 23.8828125 C-24.43781654 27.63328732 -24.47353554 29.44137516 -23.9375 33.8828125 C-22.2114971 37.02639501 -22.2114971 37.02639501 -18.9375 38.8828125 C-14.33030367 39.67585449 -10.35988832 39.5012422 -6.0625 37.6328125 C-1.53231047 33.96483851 -1.53231047 33.96483851 1.0625 28.8828125 C1.12990865 27.32162822 1.14764456 25.7577873 1.125 24.1953125 C1.11597656 23.38707031 1.10695312 22.57882813 1.09765625 21.74609375 C1.08605469 21.13121094 1.07445312 20.51632813 1.0625 19.8828125 C-2.01229519 19.8828125 -5.1297221 20.41918255 -8.1875 20.7578125 Z " fill="#00A087" transform="translate(160.9375,16.1171875)"/>
<path d="M0 0 C2.5667905 2.24594169 3.85154629 3.66886505 4.234375 7.1015625 C4.24828064 9.06921074 4.13309768 11.03680924 4 13 C2.68 13 1.36 13 0 13 C-0.42317708 10.98177083 -0.84635417 8.96354167 -1.26953125 6.9453125 C-1.92308838 4.62953451 -1.92308838 4.62953451 -5 3 C-7.83403643 2.60657482 -7.83403643 2.60657482 -10.9375 2.625 C-11.97777344 2.59664062 -13.01804687 2.56828125 -14.08984375 2.5390625 C-17.6723357 3.10649075 -18.80605489 4.16960383 -21 7 C-21.75021244 9.54367668 -21.75021244 9.54367668 -21 12 C-16.45398397 15.35934006 -11.26288151 16.52014913 -5.8828125 17.9296875 C-1.08822486 19.30473905 1.8608119 20.91483775 5 25 C6.18503398 29.71069409 5.68342172 33.8284199 3.25 38 C-2.09887266 42.75455348 -7.43062771 42.50029338 -14.34765625 42.3046875 C-19.2703091 41.89402769 -21.34324312 41.32432444 -25 38 C-27.37060322 33.8708402 -28.44797931 29.77844594 -28 25 C-26.68 25 -25.36 25 -24 25 C-23.76216797 25.92232422 -23.76216797 25.92232422 -23.51953125 26.86328125 C-22.06863699 31.90797456 -22.06863699 31.90797456 -19 36.0625 C-13.84099597 37.67468876 -7.82450471 38.10945382 -2.72265625 36.10546875 C-0.83891302 35.10385001 -0.83891302 35.10385001 0 33 C0.4167552 30.04211431 0.4167552 30.04211431 0 27 C-3.83867589 23.03068854 -9.53836247 22.33174254 -14.71289062 21.0703125 C-19.70414576 19.73579925 -22.74280866 18.24768227 -26 14 C-27.09593355 10.29316593 -26.81374082 6.62748164 -25.078125 3.15625 C-18.88114336 -5.05273867 -8.33099741 -4.48175132 0 0 Z " fill="#00A088" transform="translate(309,17)"/>
<path d="M0 0 C4.0792324 3.08721781 5.51870695 6.02440202 6.51464844 11.08349609 C7.24733468 17.02400122 7.06484331 22.99787125 6.98828125 28.97265625 C6.97822756 30.3287694 6.96910595 31.6848898 6.9609375 33.04101562 C6.93752183 36.33091725 6.90472548 39.62044063 6.86328125 42.91015625 C5.21328125 42.91015625 3.56328125 42.91015625 1.86328125 42.91015625 C1.85917236 41.90637939 1.85506348 40.90260254 1.85083008 39.8684082 C1.82899813 36.13123781 1.77466831 32.39511424 1.71069336 28.65844727 C1.68754839 27.04364076 1.67312582 25.42868404 1.66772461 23.8137207 C1.65840851 21.48684477 1.61736757 19.16231949 1.5703125 16.8359375 C1.57424515 16.11803543 1.5781778 15.40013336 1.58222961 14.66047668 C1.46903717 10.74011847 0.97004492 9.0423201 -1.5246582 5.95410156 C-5.13569556 3.12845386 -7.3365887 3.25389948 -11.76171875 3.484375 C-15.14842996 4.09153211 -16.86939408 5.359416 -19.13671875 7.91015625 C-21.48635769 11.52803656 -21.44627837 14.8322476 -21.55078125 19.08203125 C-21.5701474 19.76444885 -21.58951355 20.44686646 -21.60946655 21.14996338 C-21.66902973 23.31990233 -21.71555321 25.48989502 -21.76171875 27.66015625 C-21.79992006 29.13543922 -21.83897305 30.6107004 -21.87890625 32.0859375 C-21.9747111 35.69381043 -22.05882791 39.30184708 -22.13671875 42.91015625 C-23.45671875 42.91015625 -24.77671875 42.91015625 -26.13671875 42.91015625 C-26.13671875 28.39015625 -26.13671875 13.87015625 -26.13671875 -1.08984375 C-24.81671875 -1.08984375 -23.49671875 -1.08984375 -22.13671875 -1.08984375 C-21.80671875 -0.09984375 -21.47671875 0.89015625 -21.13671875 1.91015625 C-20.39421875 1.43578125 -19.65171875 0.96140625 -18.88671875 0.47265625 C-13.01140713 -2.86558899 -6.10304287 -3.11288658 0 0 Z " fill="#00A087" transform="translate(271.13671875,16.08984375)"/>
<path d="M0 0 C4.04433866 3.35102346 6.02874554 6.45113782 6.64160156 11.70654297 C6.64097618 13.15607878 6.61884576 14.60572364 6.578125 16.0546875 C6.57246521 16.82305939 6.56680542 17.59143127 6.56097412 18.38308716 C6.53872173 20.81854621 6.48855041 23.25249157 6.4375 25.6875 C6.41742042 27.3463328 6.3991722 29.00518884 6.3828125 30.6640625 C6.33889406 34.71411799 6.26994763 38.76305306 6.1875 42.8125 C4.8675 42.8125 3.5475 42.8125 2.1875 42.8125 C2.16768066 41.8337793 2.14786133 40.85505859 2.12744141 39.84667969 C2.05125376 36.20856403 1.96255705 32.57084147 1.87011719 28.93310547 C1.83188171 27.35994235 1.79701934 25.78669342 1.765625 24.21337891 C1.71985578 21.94923277 1.66188239 19.68567453 1.6015625 17.421875 C1.59001129 16.72068542 1.57846008 16.01949585 1.56655884 15.29705811 C1.45774569 11.68057911 1.30352743 8.81709884 -0.8125 5.8125 C-5.07346497 2.97185669 -8.81236999 3.06597981 -13.8125 3.8125 C-17.48819486 5.48939542 -19.42899984 7.84704506 -20.9296875 11.625 C-22.46835074 17.51417939 -22.28530072 23.70324962 -22.4375 29.75 C-22.47617188 31.00619141 -22.51484375 32.26238281 -22.5546875 33.55664062 C-22.64853217 36.64178426 -22.73422316 39.72692865 -22.8125 42.8125 C-24.1325 42.8125 -25.4525 42.8125 -26.8125 42.8125 C-26.8125 28.2925 -26.8125 13.7725 -26.8125 -1.1875 C-25.4925 -1.1875 -24.1725 -1.1875 -22.8125 -1.1875 C-22.4825 0.1325 -22.1525 1.4525 -21.8125 2.8125 C-20.905 2.173125 -19.9975 1.53375 -19.0625 0.875 C-12.89654583 -3.03800938 -6.68554881 -2.82278728 0 0 Z " fill="#00A188" transform="translate(104.8125,16.1875)"/>
<path d="M0 0 C1.32 0 2.64 0 4 0 C4 4.29 4 8.58 4 13 C6.97 13 9.94 13 13 13 C13 14.32 13 15.64 13 17 C10.03 17 7.06 17 4 17 C4.33 28.22 4.66 39.44 5 51 C7.31 51.33 9.62 51.66 12 52 C12 53.32 12 54.64 12 56 C8.36257951 56.93050292 6.62301488 57.30458505 3.1875 55.625 C1 54 1 54 0 53 C-0.08855161 50.3337397 -0.11524673 47.69352886 -0.09765625 45.02734375 C-0.0962413 44.22970108 -0.09482635 43.43205841 -0.09336853 42.61024475 C-0.08775316 40.05262565 -0.07519812 37.49509282 -0.0625 34.9375 C-0.05748698 33.20768355 -0.05292373 31.47786574 -0.04882812 29.74804688 C-0.03777875 25.49866447 -0.02050386 21.24934688 0 17 C-2.64 17 -5.28 17 -8 17 C-8 15.68 -8 14.36 -8 13 C-5.36 13 -2.72 13 0 13 C0 8.71 0 4.42 0 0 Z " fill="#00A289" transform="translate(120,2)"/>
<path d="M0 0 C1.65 0 3.3 0 5 0 C5 19.47 5 38.94 5 59 C3.35 59 1.7 59 0 59 C0 39.53 0 20.06 0 0 Z " fill="#00A187" transform="translate(172,0)"/>
<path d="M0 0 C1.8871875 0.00773437 1.8871875 0.00773437 3.8125 0.015625 C5.070625 0.01046875 6.32875 0.0053125 7.625 0 C10.8125 0.265625 10.8125 0.265625 12.8125 2.265625 C13.45020454 5.87928407 13.52395183 8.21643339 11.421875 11.31640625 C6.99207693 16.12177415 6.99207693 16.12177415 3.25 16.578125 C-0.24964902 14.69369861 -2.97070762 12.6019346 -5.1875 9.265625 C-5.6875 5.515625 -5.6875 5.515625 -5.1875 2.265625 C-3.1875 0.265625 -3.1875 0.265625 0 0 Z " fill="#E51921" transform="translate(195.1875,67.734375)"/>
<path d="M0 0 C0.99 0 1.98 0 3 0 C3.33 3.96 3.66 7.92 4 12 C4.33 8.04 4.66 4.08 5 0 C5.99 0 6.98 0 8 0 C8.33 3.96 8.66 7.92 9 12 C9.33 8.04 9.66 4.08 10 0 C10.99 0 11.98 0 13 0 C13.05398987 2.27057377 13.09278742 4.54151288 13.125 6.8125 C13.14820313 8.07707031 13.17140625 9.34164062 13.1953125 10.64453125 C13 14 13 14 11 17 C8.90625 17.3984375 8.90625 17.3984375 6.5 17.375 C5.7059375 17.38273437 4.911875 17.39046875 4.09375 17.3984375 C3.4028125 17.26695313 2.711875 17.13546875 2 17 C-0.49118953 13.2632157 -0.2065226 11.25548181 -0.125 6.8125 C-0.10695312 5.54019531 -0.08890625 4.26789063 -0.0703125 2.95703125 C-0.04710937 1.98121094 -0.02390625 1.00539063 0 0 Z " fill="#00A38A" transform="translate(212,68)"/>
<path d="M0 0 C2.875 -0.1875 2.875 -0.1875 6 0 C8.49118953 3.7367843 8.2065226 5.74451819 8.125 10.1875 C8.10695313 11.45980469 8.08890625 12.73210937 8.0703125 14.04296875 C8.03550781 15.50669922 8.03550781 15.50669922 8 17 C6.68 17 5.36 17 4 17 C4 14.69 4 12.38 4 10 C3.34 10 2.68 10 2 10 C2 12.31 2 14.62 2 17 C1.01 17 0.02 17 -1 17 C-1.02691685 14.54159395 -1.04679802 12.08348118 -1.0625 9.625 C-1.07087891 8.92632812 -1.07925781 8.22765625 -1.08789062 7.5078125 C-1.11328125 2.2265625 -1.11328125 2.2265625 0 0 Z M3 3 C2.67 4.32 2.34 5.64 2 7 C2.66 7 3.32 7 4 7 C3.67 5.68 3.34 4.36 3 3 Z " fill="#009F86" transform="translate(263,68)"/>
<path d="M0 0 C2.5 0.25 2.5 0.25 4.5 2.25 C4.765625 5.21875 4.765625 5.21875 4.75 8.75 C4.75515625 9.9153125 4.7603125 11.080625 4.765625 12.28125 C4.5 15.25 4.5 15.25 2.5 17.25 C0 17.5 0 17.5 -2.5 17.25 C-4.5 15.25 -4.5 15.25 -4.765625 12.28125 C-4.76046875 11.1159375 -4.7553125 9.950625 -4.75 8.75 C-4.75515625 7.5846875 -4.7603125 6.419375 -4.765625 5.21875 C-4.4304537 1.47271785 -3.81517574 0.38151757 0 0 Z M-0.5 3.25 C-1.73267348 4.25836062 -1.73267348 4.25836062 -1.59765625 6.31640625 C-1.58605469 7.14011719 -1.57445312 7.96382813 -1.5625 8.8125 C-1.55347656 9.63878906 -1.54445313 10.46507813 -1.53515625 11.31640625 C-1.52355469 11.95449219 -1.51195312 12.59257813 -1.5 13.25 C-0.51 13.25 0.48 13.25 1.5 13.25 C1.5 10.28 1.5 7.31 1.5 4.25 C0.84 3.92 0.18 3.59 -0.5 3.25 Z " fill="#00A188" transform="translate(300.5,67.75)"/>
<path d="M0 0 C0.99 0 1.98 0 3 0 C3 2.31 3 4.62 3 7 C3.66 7 4.32 7 5 7 C5 4.69 5 2.38 5 0 C5.99 0 6.98 0 8 0 C8 5.61 8 11.22 8 17 C7.01 17 6.02 17 5 17 C5 14.69 5 12.38 5 10 C4.34 10 3.68 10 3 10 C3 12.31 3 14.62 3 17 C2.01 17 1.02 17 0 17 C0 11.39 0 5.78 0 0 Z " fill="#00A38A" transform="translate(282,68)"/>
<path d="M0 0 C0.99 0 1.98 0 3 0 C3 2.31 3 4.62 3 7 C3.66 7 4.32 7 5 7 C5 4.69 5 2.38 5 0 C5.99 0 6.98 0 8 0 C8 5.61 8 11.22 8 17 C7.01 17 6.02 17 5 17 C5 14.69 5 12.38 5 10 C4.34 10 3.68 10 3 10 C3 12.31 3 14.62 3 17 C2.01 17 1.02 17 0 17 C0 11.39 0 5.78 0 0 Z " fill="#00A38A" transform="translate(240,68)"/>
<path d="M0 0 C2.875 -0.1875 2.875 -0.1875 6 0 C8.49118953 3.7367843 8.2065226 5.74451819 8.125 10.1875 C8.10695312 11.45980469 8.08890625 12.73210937 8.0703125 14.04296875 C8.03550781 15.50669922 8.03550781 15.50669922 8 17 C7.01 17 6.02 17 5 17 C4.67 12.71 4.34 8.42 4 4 C3.67 4 3.34 4 3 4 C2.67 8.29 2.34 12.58 2 17 C1.01 17 0.02 17 -1 17 C-1.02691685 14.54159395 -1.04679802 12.08348118 -1.0625 9.625 C-1.07087891 8.92632812 -1.07925781 8.22765625 -1.08789062 7.5078125 C-1.11328125 2.2265625 -1.11328125 2.2265625 0 0 Z " fill="#00A088" transform="translate(179,68)"/>
<path d="M0 0 C1.99954746 -0.04254356 4.00041636 -0.04080783 6 0 C7 1 7 1 7.09765625 4.59765625 C7.0909822 6.08596867 7.07902183 7.57426432 7.0625 9.0625 C7.05798828 9.82111328 7.05347656 10.57972656 7.04882812 11.36132812 C7.0370068 13.24091871 7.01907078 15.12046899 7 17 C6.01 17 5.02 17 4 17 C4 12.38 4 7.76 4 3 C3.34 3 2.68 3 2 3 C2 7.62 2 12.24 2 17 C1.01 17 0.02 17 -1 17 C-1.02691685 14.54159395 -1.04679802 12.08348118 -1.0625 9.625 C-1.07087891 8.92632812 -1.07925781 8.22765625 -1.08789062 7.5078125 C-1.11328125 2.2265625 -1.11328125 2.2265625 0 0 Z " fill="#00A288" transform="translate(307,68)"/>
<path d="M0 0 C3 0.125 3 0.125 4 1.125 C4.04063832 2.79117115 4.042721 4.45888095 4 6.125 C3.01 6.125 2.02 6.125 1 6.125 C1.495 6.66125 1.99 7.1975 2.5 7.75 C4.38701339 10.7377712 4.30867281 12.65243085 4 16.125 C3 17.125 3 17.125 0 17.25 C-3 17.125 -3 17.125 -4 16.125 C-4.04063832 14.45882885 -4.042721 12.79111905 -4 11.125 C-3.01 11.125 -2.02 11.125 -1 11.125 C-1.7425 10.0421875 -1.7425 10.0421875 -2.5 8.9375 C-4.08422749 5.96707346 -4.3668038 4.4262342 -4 1.125 C-3 0.125 -3 0.125 0 0 Z M-1 3.125 C-0.67 4.115 -0.34 5.105 0 6.125 C0.33 5.135 0.66 4.145 1 3.125 C0.34 3.125 -0.32 3.125 -1 3.125 Z M-1 11.125 C-1 12.115 -1 13.105 -1 14.125 C-0.34 14.125 0.32 14.125 1 14.125 C0.67 13.135 0.34 12.145 0 11.125 C-0.33 11.125 -0.66 11.125 -1 11.125 Z " fill="#00A188" transform="translate(276,67.875)"/>
<path d="M0 0 C2.31 0 4.62 0 7 0 C7 0.99 7 1.98 7 3 C5.68 3 4.36 3 3 3 C3 4.32 3 5.64 3 7 C4.32 7 5.64 7 7 7 C7 7.99 7 8.98 7 10 C5.68 10 4.36 10 3 10 C3 12.31 3 14.62 3 17 C2.01 17 1.02 17 0 17 C0 11.39 0 5.78 0 0 Z " fill="#00A189" transform="translate(254,68)"/>
<path d="M0 0 C2.31 0 4.62 0 7 0 C7 0.99 7 1.98 7 3 C6.34 3 5.68 3 5 3 C5 7.62 5 12.24 5 17 C4.01 17 3.02 17 2 17 C1.93941406 16.02417969 1.87882813 15.04835938 1.81640625 14.04296875 C1.73261719 12.77066406 1.64882812 11.49835938 1.5625 10.1875 C1.48128906 8.92292969 1.40007812 7.65835938 1.31640625 6.35546875 C1.12815453 3.00818107 1.12815453 3.00818107 0 0 Z " fill="#00A289" transform="translate(231,68)"/>
<path d="M0 0 C0.99 0 1.98 0 3 0 C3 5.61 3 11.22 3 17 C2.01 17 1.02 17 0 17 C0 11.39 0 5.78 0 0 Z " fill="#00A28A" transform="translate(292,68)"/>
<path d="M0 0 C0.99 0 1.98 0 3 0 C3 5.61 3 11.22 3 17 C2.01 17 1.02 17 0 17 C0 11.39 0 5.78 0 0 Z " fill="#00A38A" transform="translate(227,68)"/>
<path d="M0 0 C0.99 0 1.98 0 3 0 C3 5.61 3 11.22 3 17 C2.01 17 1.02 17 0 17 C0 11.39 0 5.78 0 0 Z " fill="#00A287" transform="translate(174,68)"/>
</svg>
